<svg width="290" height="655" viewBox="0 0 290 655" fill="none" xmlns="http://www.w3.org/2000/svg">
<g filter="url(#filter0_d_1599_578)">
<path d="M278.2 322.63C276.82 312.63 271.11 304.34 267.8 292.38C262.33 272.61 260.77 252.2 252.91 232.58C249.03 222.88 242.4 215.3 238.07 206.32C225.51 180.24 219.7 137.54 204.01 114.31C197.68 104.94 192.1 105.45 184.88 105.9C181.73 106.08 178.26 106.27 174.29 105.61C171.15 105.09 160.01 101 159.13 97.9997C158.41 95.5897 158.48 80.7797 158.96 77.8997C159.26 76.0497 164.72 64.2397 166 61.3497C167.84 57.1897 171.9 55.2097 171.22 48.5097C170.96 45.9497 168.73 45.8397 168.6 45.5297C167.39 42.8197 168.73 34.9497 168.21 31.0997C164.66 4.42974 123.65 4.32973 120.38 31.1297C120.02 33.9697 120.52 37.9297 120.58 41.1897C120.61 42.6897 120.55 44.0397 120.29 45.0697C119.99 46.2397 117.31 45.8597 117.08 48.2897C116.92 49.9597 118.52 54.6297 119.33 56.3597C125.94 70.5197 132.24 75.9397 130.75 93.1497C130.45 96.5697 130.39 98.8997 127.3 101C126.08 101.82 116.86 105.33 115.31 105.6C110.93 106.4 107.34 106.33 104.22 106.17C95.8199 105.73 90.8299 104.63 83.1699 118.04C69.4499 142.04 63.9499 176.94 52.8899 202.54C48.0399 213.75 40.0899 222.98 35.6599 234.61C28.4299 253.59 26.8899 273.16 21.5899 292.15C16.6099 309.98 6.14988 320.06 13.1799 340.04C15.5399 346.75 28.1899 351.67 21.0499 341.03C22.5499 341.23 28.8599 340.72 29.3799 339.95C29.7599 339.39 27.9899 334.63 29.3999 332.89C14.2099 330.7 20.5199 325.91 23.1399 315.56L24.8099 323.98L25.4199 327.06L29.3899 328.79C28.8699 321.99 34.3899 314.02 34.5499 307.81C34.6099 305.14 32.8899 303.15 32.5999 300.69C31.5699 291.98 53.3399 254.24 58.0799 243.23C63.5799 230.49 66.0499 217.57 72.0299 204.91C79.3799 189.37 88.5199 174.4 95.6799 158.74L100.39 151.64C106.67 172.53 110.5 193.95 115.09 215.26C110.89 227.72 103.76 238.8 99.8899 251.41C82.8899 306.73 103.76 366.84 106.72 422.91C107.87 444.73 101.01 466.24 102.51 490.14C103.72 509.44 108.93 530.67 112.27 550.94C113.78 560.15 114.91 569.16 115.11 577.71C115.17 580.39 113.67 582.96 113.88 585.86C114.03 587.84 115.71 589.16 115.59 590.5C115.02 597.32 109.04 609.28 107.98 617.66C107.03 625.17 108.24 630.67 112.94 636.74C123.49 650.36 133.74 641.44 135.64 627.57C137.7 612.47 133.12 594.4 131.83 579.64C128.42 540.81 137.42 499.02 135.95 459.56C134.7 425.7 133.17 391.63 139.03 357.79L142.18 295.18H147.38C147.36 296.42 147.35 297.64 147.36 298.88C147.23 339.38 154.35 379.47 154.74 419.95C154.98 444.07 152.85 468.76 153.69 493.19C154.82 526.08 159.43 557.36 156.57 589.92C155.43 602.9 149.68 625.45 156.57 636.97C166.76 654.02 182.72 633.82 181.73 620.6C181.17 613.02 173.3 594.11 173.57 589.9C173.66 588.42 175.36 587.31 175.6 585.78C175.99 583.31 174.33 576.81 174.56 572.64C174.96 565.42 175.85 558.06 177 550.61C180.38 528.59 185.93 505.83 187.07 484.05C188.26 461.16 181.56 441.51 182.86 418.85C185.82 367.17 205.49 301.53 189.44 251.66C186.24 241.75 174.47 222.46 174.45 214.27C174.45 206.93 179.4 189.25 181.31 181.16C183.13 173.52 186.2 166.09 187.5 158.5C187.96 155.9 188.21 153.29 188.13 150.64L199.11 168.93C214.19 192.84 220.89 220 231.8 244.98C236.04 254.69 257.61 292.51 257.03 299.66C256.78 302.67 254.68 304.82 254.91 308.9C255.13 312.68 257.87 317.53 258.89 321.39C259.73 324.55 258.34 332.47 263.76 326.67L266.43 316.57C266.33 319.3 270.57 325.99 270.16 327.85C269.09 332.69 261.89 331.09 260.62 332.82C260.4 333.12 260.41 339.73 260.62 340.03C261.82 341.75 266.46 340.8 268.55 341.02C267.16 343.04 265.92 344.42 266.46 347.11C270.43 347.37 274.5 344.02 275.83 340.47C278.45 333.54 278.92 327.84 278.2 322.6V322.63Z" stroke="white" stroke-width="3" stroke-miterlimit="10"/>
</g>
<defs>
<filter id="filter0_d_1599_578" x="3.66288" y="3.90348" width="282.001" height="646.768" filterUnits="userSpaceOnUse" color-interpolation-filters="sRGB">
<feFlood flood-opacity="0" result="BackgroundImageFix"/>
<feColorMatrix in="SourceAlpha" type="matrix" values="0 0 0 0 0 0 0 0 0 0 0 0 0 0 0 0 0 0 127 0" result="hardAlpha"/>
<feOffset/>
<feGaussianBlur stdDeviation="2.83"/>
<feColorMatrix type="matrix" values="0 0 0 0 0.807843 0 0 0 0 0.921569 0 0 0 0 0.968627 0 0 0 0.95 0"/>
<feBlend mode="normal" in2="BackgroundImageFix" result="effect1_dropShadow_1599_578"/>
<feBlend mode="normal" in="SourceGraphic" in2="effect1_dropShadow_1599_578" result="shape"/>
</filter>
</defs>
</svg>
