<svg width="277" height="174" viewBox="0 0 277 174" fill="none" xmlns="http://www.w3.org/2000/svg">
<g clip-path="url(#clip0_1599_496)">
<path d="M44.0598 37.8731C44.2398 25.5631 54.2298 15.0431 67.2498 15.0431C80.2698 15.0431 90.6198 26.6431 81.8798 47.1531H99.0098C109.53 23.6031 95.6198 0.413086 69.0398 0.413086C44.2398 0.413086 26.9398 20.2131 26.7598 39.3031C26.3998 74.2631 67.9698 74.2631 67.9698 100.843C67.9698 114.933 55.6598 127.963 40.1398 127.963C26.7598 127.963 16.9498 119.403 16.9498 106.913C16.9498 99.4231 19.9798 91.2131 25.1598 86.5731L10.7098 78.5431C4.46977 84.9631 0.00976562 97.6331 0.00976562 107.083C0.00976562 128.313 15.3498 143.113 38.7198 143.113C66.0098 143.113 85.4598 121.703 85.6398 99.7631C85.8198 64.6231 43.7198 63.7231 44.0798 37.8631L44.0598 37.8731Z" fill="white"/>
<path d="M253.49 53.5727C232.99 53.5727 217.54 72.7227 214.98 94.9027C207.66 105.533 200.11 112.443 194.8 112.443C188.56 112.443 189.09 106.553 195.69 86.4027C200.86 70.8827 210.32 44.1227 221.73 13.8027H205.67C196.39 39.1327 186.58 66.0727 180.87 84.2627C180.26 86.1927 179.7 88.0427 179.19 89.8327C170.73 103.893 161.18 112.573 148.23 119.043C155.54 97.6327 162.14 77.4827 169.99 55.3527H154.29C147.33 76.2227 139.66 104.763 124.68 104.763C111.3 104.763 120.93 77.6427 130.21 55.3527H114.51C99.7002 90.4927 96.1402 117.973 119.68 117.973C126.64 117.973 133.77 114.053 137.7 107.803L131.99 124.393C112.37 127.603 80.9702 136.703 80.9702 157.573C80.9702 165.783 87.7502 173.453 101.48 173.453C118.78 173.453 134.3 159.543 143.22 134.033C156.36 129.263 166.9 121.893 175.33 112.263C175.59 122.283 180.39 127.073 190.67 127.073C199.64 127.073 208.61 119.733 215.91 110.613C218.94 120.423 226.95 127.073 238.3 127.073C261.67 127.073 276.83 102.453 276.83 79.4427C276.83 66.6027 269.16 53.5727 253.46 53.5727H253.49ZM102.75 160.963C98.1102 160.963 96.1502 158.463 96.1502 155.253C96.1502 145.803 115.95 137.773 128.44 136.163C120.95 153.643 111.14 160.963 102.75 160.963ZM240.29 112.973C234.22 112.973 230.12 108.333 230.12 99.5927C230.12 84.7827 240.11 66.9427 251.17 66.9427C257.95 66.9427 261.16 72.8327 261.16 80.3227C261.16 95.1327 251.17 112.973 240.29 112.973Z" fill="white"/>
</g>
<defs>
<clipPath id="clip0_1599_496">
<rect width="276.86" height="173.04" fill="white" transform="translate(0 0.413086)"/>
</clipPath>
</defs>
</svg>
