<svg width="248" height="651" viewBox="0 0 248 651" fill="none" xmlns="http://www.w3.org/2000/svg">
<g filter="url(#filter0_d_1599_565)">
<path d="M184.485 200.606C186.825 202.236 185.695 205.076 186.495 207.266C187.855 211.006 188.885 215.016 190.385 218.706C192.795 224.626 193.025 230.756 193.825 236.906C194.775 244.286 195.935 251.656 197.495 258.966C199.255 267.226 201.535 275.316 204.265 283.256C206.495 289.736 209.365 296.016 212.355 302.186C214.605 306.826 216.135 311.666 217.675 316.526C219.155 321.216 217.315 325.756 215.945 329.976C214.645 333.976 213.275 337.736 213.395 342.026C213.585 348.586 213.535 355.166 213.395 361.726C213.335 364.316 213.985 366.196 216.625 367.186C219.245 365.886 218.155 363.166 218.285 361.326C218.495 358.176 218.565 355.106 219.565 352.046C220.195 350.126 221.315 349.676 223.095 349.716C224.725 349.756 225.675 350.546 225.775 352.066C226.175 358.396 226.255 364.696 219.985 368.636C218.195 369.756 216.595 371.426 214.215 371.386C212.295 371.356 212.215 372.676 212.285 374.086C220.705 375.226 227.425 371.496 232.095 364.496C236.955 357.216 237.005 349.876 235.715 341.586C234.665 334.876 233.805 328.026 233.445 321.146C232.615 305.426 232.395 289.676 230.905 273.996C230.685 271.706 230.425 269.376 230.445 267.046C230.495 260.186 228.835 253.606 227.505 246.926C226.015 239.436 224.465 231.956 222.585 224.576C221.005 218.356 219.095 212.186 217.305 205.996C215.655 200.276 214.625 194.426 213.365 188.626C212.145 182.986 211.465 177.276 210.865 171.596C209.945 162.876 209.535 154.076 208.735 145.336C207.795 135.086 205.485 125.426 196.115 118.966C192.235 116.296 187.795 116.026 183.635 115.026C178.915 113.886 174.355 112.206 170.695 109.586C165.085 105.566 158.955 102.576 153.135 99.0165C150.035 97.1165 147.445 94.6465 144.695 92.3665C141.765 89.9265 140.905 86.6565 142.815 83.1765C145.565 78.1565 145.765 72.6065 146.845 67.2565C147.285 65.0665 147.665 63.5465 149.635 62.1865C153.745 59.3665 154.455 54.7065 151.585 50.6865C149.655 47.9765 151.215 45.2165 151.325 42.5565C151.655 34.4565 150.505 26.9165 145.045 20.5265C141.645 16.5365 137.265 14.3165 132.315 12.7065C128.715 11.5365 125.155 11.0165 121.465 11.2665C109.315 12.1065 99.2754 17.5065 95.7854 30.1365C94.0554 36.3665 94.2654 42.2565 95.2354 48.3365C95.4554 49.7365 95.6754 50.9065 94.8354 52.2265C92.1354 56.4665 93.3554 62.6565 97.5354 65.3065C99.9454 66.8365 100.865 68.7365 100.635 71.5365C100.315 75.4765 102.165 78.8765 103.685 82.3565C106.955 89.8565 105.795 93.4765 98.6654 98.1965C94.0754 101.236 88.7854 102.886 83.9154 105.406C79.7554 107.546 75.9854 110.336 71.6554 112.196C67.1354 114.136 62.6554 115.676 57.7354 116.516C50.1154 117.816 45.2254 123.026 41.8154 129.866C39.0054 135.526 38.8754 141.646 37.9954 147.666C37.3054 152.406 37.2454 157.176 37.1654 161.966C37.0454 169.386 35.6754 176.676 34.5454 183.996C33.6454 189.846 32.5154 195.636 31.0854 201.396C29.9254 206.076 28.4154 210.656 27.2654 215.316C25.9954 220.476 24.1754 225.456 23.1554 230.726C22.1154 236.166 20.9554 241.626 19.4354 246.976C18.3854 250.656 17.6654 254.496 17.2854 258.206C16.0154 270.906 16.0754 283.736 14.9454 296.426C13.9354 307.766 14.5954 319.146 12.7754 330.496C11.6454 337.526 10.4354 344.746 10.8354 352.096C11.3054 360.776 17.0754 369.426 25.2054 373.046C28.5354 374.536 31.5754 374.926 34.9354 373.876C34.4854 370.806 31.4654 370.616 29.8154 370.066C24.2454 368.196 22.4854 364.216 21.6754 359.046C21.4554 357.636 21.1954 356.126 21.1354 354.776C21.0554 352.786 21.3254 350.216 24.0854 349.806C26.8254 349.396 27.4254 351.666 27.9054 353.636C28.5254 356.156 28.8254 358.736 28.7554 361.356C28.7354 361.956 28.0954 362.466 28.3654 362.876C29.2154 364.196 28.6254 366.716 31.0354 366.706C33.0654 366.706 33.4254 364.896 33.7454 363.286C34.5654 359.166 32.8954 355.106 33.6754 350.906C35.1854 342.736 33.6354 334.946 30.3654 327.306C28.6954 323.406 29.2354 319.166 30.2154 314.966C32.5354 305.086 38.0454 296.546 41.4154 287.136C43.3154 281.816 45.1554 276.456 46.7054 270.986C48.2054 265.716 49.3054 260.346 50.6054 255.046C51.5854 251.046 52.3954 246.846 52.5954 242.716C53.1454 231.416 55.5654 220.656 59.8954 210.206C60.8654 207.856 61.5854 205.186 62.0254 202.546C62.1354 201.916 61.9554 200.616 63.3054 200.606H63.7154C64.1754 201.636 64.9154 202.586 65.2154 203.646C66.5654 208.426 67.8154 213.256 69.1554 218.036C70.5354 222.976 72.1154 227.966 72.6954 233.076C73.3754 239.016 74.3754 244.906 75.1554 250.836C76.1554 258.346 76.3354 265.786 75.0954 273.256C74.0954 279.276 73.3654 285.386 72.9654 291.426C72.4554 299.176 71.4354 306.876 70.7054 314.586C69.8154 323.986 68.9354 333.436 68.3954 342.826C67.7254 354.486 66.3654 366.246 67.7754 377.966C68.4554 383.626 67.7454 389.316 68.4754 394.976C70.1354 407.926 69.8354 421.006 71.0554 434.016C71.9154 443.206 71.2054 452.546 71.2254 461.826C71.2254 466.436 69.9054 470.876 69.0654 475.306C68.3054 479.296 67.6754 483.366 66.7054 487.356C64.3654 496.976 65.0754 506.876 65.0154 516.696C64.9854 520.696 66.2954 524.466 67.1354 528.246C68.2054 533.066 69.5854 537.876 71.1754 542.596C72.6254 546.886 73.6954 551.297 74.8554 555.677C75.7054 558.897 76.5154 562.156 77.4354 565.366C78.8554 570.306 78.6454 575.486 79.7754 580.436C80.7954 584.916 81.0254 589.226 79.3654 593.596C77.8654 597.556 76.9254 601.646 77.3954 605.956C77.8954 610.486 76.5454 614.586 74.8354 618.756C73.8954 621.046 72.4454 623.086 71.8454 625.626C71.2754 628.046 71.1054 629.686 72.6354 631.936C74.2254 634.276 77.0054 633.656 78.5354 635.346C81.1954 638.286 85.6954 635.696 88.2554 638.766C88.4454 638.986 89.0154 638.767 89.3954 638.427C91.0254 636.997 92.4154 637.897 94.0454 638.737C97.3254 640.427 100.515 639.466 101.635 636.056C102.755 632.626 104.085 628.806 103.145 625.316C101.715 620.006 102.105 614.716 102.215 609.436C102.365 602.276 102.965 595.206 100.785 588.116C100.115 585.936 99.1554 583.637 99.0354 581.227C98.7954 576.557 98.3054 571.696 97.1954 567.396C94.3754 556.456 98.0954 546.376 99.5754 536.036C100.395 530.236 101.905 524.486 102.065 518.626C102.335 508.976 102.415 499.296 102.065 489.646C101.715 480.156 103.915 471.216 106.275 462.176C107.185 458.676 108.255 455.026 108.245 451.386C108.245 443.816 110.605 436.686 111.945 429.386C112.775 424.876 113.745 420.336 114.375 415.816C115.535 407.496 116.075 399.096 116.815 390.716C117.945 377.816 119.005 364.916 120.585 352.066C120.815 350.156 121.785 349.166 123.035 348.696C124.655 348.086 125.315 349.706 126.135 350.886C126.935 352.026 126.845 353.186 126.855 354.396C126.915 359.596 127.945 364.756 128.695 369.806C129.825 377.406 130.465 385.066 131.315 392.666C132.025 399.066 132.885 405.496 133.365 411.946C133.705 416.486 134.555 421.286 135.635 425.906C136.435 429.326 137.025 432.836 137.665 436.316C138.655 441.696 139.115 447.146 140.005 452.546C140.885 457.926 141.435 463.366 143.825 468.406C145.065 471.016 146.405 473.736 146.845 476.516C148.175 484.976 147.785 493.656 146.675 501.966C145.005 514.476 145.315 526.526 148.265 538.766C149.005 541.826 149.995 545.026 150.125 548.366C150.335 553.786 150.525 559.186 150.055 564.596C149.525 570.686 149.105 576.817 147.645 582.737C146.255 588.367 144.905 593.936 144.595 599.756C144.235 606.466 145.835 613.176 144.595 619.846C143.625 625.096 143.355 630.176 145.335 635.336C146.695 638.876 149.925 640.737 153.065 638.677C154.295 637.867 155.775 637.107 156.535 637.727C159.335 639.987 160.945 637.976 162.805 636.446C164.765 637.376 166.705 637.896 168.195 635.686C168.955 634.556 170.195 634.506 171.295 634.146C174.775 633.036 177.185 629.546 175.835 626.846C174.865 624.926 174.515 622.836 173.435 620.886C171.525 617.466 170.015 613.736 169.975 609.406C169.935 604.516 170.325 599.397 168.175 594.737C167.135 592.477 167.015 590.176 167.025 587.766C167.045 577.726 169.175 568.066 171.575 558.376C173.605 550.206 176.195 542.206 178.375 534.096C179.935 528.316 181.905 522.496 182.285 516.656C183.065 504.696 183.145 492.576 180.815 480.756C179.195 472.526 178.515 464.306 178.275 455.996C178.055 448.386 178.155 440.776 179.045 433.206C179.725 427.406 178.825 421.566 179.485 415.826C181.205 400.926 181.485 385.956 182.125 370.996C182.505 362.196 180.915 353.506 180.855 344.716C180.815 338.886 179.545 333.106 178.625 327.326C177.735 321.676 177.115 315.966 176.505 310.306C175.765 303.346 174.435 296.446 174.005 289.456C173.465 280.676 171.675 272.036 171.565 263.186C171.465 255.376 173.005 247.746 173.525 240.016C173.815 235.746 174.745 231.166 176.025 226.776C177.265 222.526 178.225 218.066 179.425 213.726C180.605 209.446 180.885 204.886 183.265 200.966L184.445 200.596L184.485 200.606Z" stroke="white" stroke-width="3" stroke-miterlimit="10"/>
</g>
<defs>
<filter id="filter0_d_1599_565" x="3.59745" y="4.04508" width="239.993" height="642.667" filterUnits="userSpaceOnUse" color-interpolation-filters="sRGB">
<feFlood flood-opacity="0" result="BackgroundImageFix"/>
<feColorMatrix in="SourceAlpha" type="matrix" values="0 0 0 0 0 0 0 0 0 0 0 0 0 0 0 0 0 0 127 0" result="hardAlpha"/>
<feOffset/>
<feGaussianBlur stdDeviation="2.83"/>
<feColorMatrix type="matrix" values="0 0 0 0 0.807843 0 0 0 0 0.921569 0 0 0 0 0.968627 0 0 0 0.95 0"/>
<feBlend mode="normal" in2="BackgroundImageFix" result="effect1_dropShadow_1599_565"/>
<feBlend mode="normal" in="SourceGraphic" in2="effect1_dropShadow_1599_565" result="shape"/>
</filter>
</defs>
</svg>
